<?xml version="1.0" encoding="utf-8"?>
<!-- Generator: Adobe Illustrator 22.1.0, SVG Export Plug-In . SVG Version: 6.00 Build 0)  -->
<svg version="1.1" id="レイヤー_1" xmlns="http://www.w3.org/2000/svg" xmlns:xlink="http://www.w3.org/1999/xlink" x="0px"
	 y="0px" viewBox="0 0 100 100" xml:space="preserve">
<style type="text/css">
	.st0{fill:#606060;enable-background:new    ;}
</style>
<path class="st0" d="M88.5,0H11.5C5.2,0,0,5.2,0,11.5v76.9C0,94.8,5.2,100,11.5,100h0h76.9
	c6.4,0,11.5-5.2,11.5-11.5c0,0,0,0,0,0V11.5C100,5.2,94.8,0,88.5,0z M50,30.8c10.6,0,19.2,8.6,19.2,19.2S60.6,69.2,50,69.2
	S30.8,60.6,30.8,50c0,0,0,0,0,0C30.8,39.4,39.4,30.8,50,30.8z M87.5,83.7c0,2.1-1.7,3.8-3.8,3.8c0,0,0,0,0,0H16.3
	c-2.1,0-3.8-1.7-3.8-3.8c0,0,0,0,0,0v-42h7.9c-0.4,1.3-0.6,2.7-0.8,4c-0.2,1.4-0.3,2.9-0.3,4.3C19.2,67,33,80.8,50,80.8
	S80.8,67,80.8,50c0-1.4-0.1-2.9-0.3-4.3c-0.2-1.4-0.5-2.7-0.8-4h7.9V83.7L87.5,83.7z M87.5,25.4c0,2.1-1.7,3.8-3.8,3.8h-9.1
	c-2.1,0-3.8-1.7-3.8-3.8v-9.1c0-2.1,1.7-3.8,3.8-3.8c0,0,0,0,0,0h9.1c2.1,0,3.8,1.7,3.8,3.8c0,0,0,0,0,0L87.5,25.4L87.5,25.4z"/>
</svg>
