<?xml version="1.0" encoding="utf-8"?>
<!-- Generator: Adobe Illustrator 22.1.0, SVG Export Plug-In . SVG Version: 6.00 Build 0)  -->
<svg version="1.1" id="レイヤー_1" xmlns="http://www.w3.org/2000/svg" xmlns:xlink="http://www.w3.org/1999/xlink" x="0px"
	 y="0px" viewBox="0 0 1196.3 449.7" style="enable-background:new 0 0 1196.3 449.7;" xml:space="preserve">
<style type="text/css">
	.st0{fill:#D9D9D9;}
</style>
<g>
	<path class="st0" d="M224.8,449.7C100.9,449.7,0,348.8,0,224.8C0,100.9,100.9,0,224.8,0s224.8,100.9,224.8,224.8
		C449.7,348.8,348.8,449.7,224.8,449.7z M224.8,7.8c-119.7,0-217,97.4-217,217c0,119.7,97.4,217,217,217s217-97.4,217-217
		C441.9,105.2,344.5,7.8,224.8,7.8z"/>
</g>
<g>
	<path d="M389.9,138.4l3,0.6l-0.2,1.3c-1.5,24.9-2.6,32.2-5.1,36.1c-2,3.1-4.3,3.8-7.6,3.9c-2.6,0-7.8-0.3-12.7-0.9
		c-0.1-1.3-0.4-3.5-0.9-4.9c5.5,0.7,10.8,1.1,12.6,1.1s3.3-0.1,4.5-2.3c1.6-3,2.6-9.5,3.9-30.2h-13.7c-0.3,1.8-0.5,3.6-0.8,5.3
		l-5-0.4c1.1-7.2,2.3-16.9,3-23.7h-19.5v5.1c0,14.3-1.5,35.4-19.1,51.2c-0.8-1.1-2.5-3-3.7-3.8c16.6-14.7,17.9-34.1,17.9-47.3v-5.1
		h-14.2v-4.6h40.2l1.1-0.2l2.9,0.6c-0.1,0.4-0.2,0.9-0.3,1.2c-0.4,4.3-1.1,10.7-2,17.1h14.4L389.9,138.4z"/>
	<path d="M472.4,137.4h-26.4c6.6,12.4,18,24.9,28.8,31c-1.2,1-2.8,2.8-3.7,4.1c-10-6.3-20.3-17.9-27.3-30.2v38.3h-5v-38.1
		c-6.9,12.5-17.1,23.9-27.4,30.3c-0.8-1.2-2.4-3-3.5-4c11.1-6.1,22.2-18.6,28.7-31.4h-26.2v-4.7h28.5v-17.8l6.4,0.4
		c-0.1,0.6-0.5,0.9-1.5,1v16.4h28.7V137.4z"/>
	<path d="M500.2,157.6c2.6-1.1,5.4-2.3,8.1-3.4l1,4.2c-7.4,3.4-15.2,6.9-20.1,9.1c0,0.6-0.3,1.1-0.7,1.2l-2.6-5.3
		c2.7-1,6.1-2.4,9.8-3.9v-23h-8.6v-4.6h8.6v-16.9l6,0.4c-0.1,0.5-0.5,0.8-1.4,0.9v15.6h8v4.6h-8V157.6z M547.3,135.9l3,1.1
		c-0.1,0.4-0.4,0.6-0.6,0.9c-2.3,11.7-6.9,21-12.8,28.1c4.5,4.6,10,8.1,16.4,10.3c-1.1,1-2.5,2.8-3.3,4.2
		c-6.4-2.5-11.8-6.2-16.4-10.9c-4.7,4.7-10.2,8.4-16.1,11c-0.6-1.3-1.9-3-3-4.1c5.7-2.2,11.2-5.7,15.9-10.6
		c-5.1-6.4-8.9-14.3-11.5-23.4l4.3-1.1c2.3,8,5.8,15.2,10.5,21c4.7-5.9,8.4-13.2,10.6-21.8h-26.6c-0.1,12-1.6,28.4-11.8,39.1
		c-0.7-0.8-2.6-2.4-3.7-3c9.8-10.4,10.8-25.2,10.8-36.6v-21.7h38.6v4.6h-34v13.1h28.9L547.3,135.9z"/>
	<path d="M593.5,165.7h-28.7v-1.4l31.2-42.2h1.9v39.6h6.6v4.1h-6.6v12.7h-4.4V165.7z M593.5,161.6v-18c0-5.6,0.1-8.6,0.6-13H594
		c-2,3.4-3.3,5.2-4.7,7l-17.7,23.9H593.5z"/>
	<path d="M614.8,161.6c0-6.5,3-11.7,9.2-20.6l13.7-19.7l3.4,2l0.1,0.7l-10.9,15.3c-2.1,2.8-4.4,5.6-7.4,9.3l0.2,0.1
		c2.7-2.6,6.8-4.3,10.9-4.3c9.6,0,16.4,7,16.4,17.4c0,10.9-7.4,18.2-18.1,18.2C621.7,179.9,614.8,172.9,614.8,161.6z M645.9,161.9
		c0-8.4-5.3-13.8-13.1-13.8c-8.1,0-13.5,5.7-13.5,14c0,8.3,5.4,13.9,13.3,13.9S645.9,170.2,645.9,161.9z"/>
	<path d="M704.7,115.1c-0.2,0.6-0.7,0.9-1.5,1.1c7,9.5,19.9,19.6,31,24.7c-1.1,1.1-2.3,2.7-3.1,4.1c-11.3-5.9-24.1-16.1-30.9-25.4
		c-5.9,8.8-17.8,19.2-30.2,25.9c-0.6-1.1-2-2.8-3-3.8c12.6-6.5,24.9-17.6,30.6-27.1L704.7,115.1z M678.7,180.6V152h43.6v28.7h-4.8
		v-3h-34.1v3H678.7z M682.3,138.3h36.3v4.3h-36.3V138.3z M717.5,156.3h-34.1v16.9h34.1V156.3z"/>
	<path d="M808.1,118.5v55.8c0,6.1-3.1,6.3-14.7,6.3c-0.3-1.3-1-3.4-1.8-4.7c2.8,0.1,5.3,0.1,7.2,0.1c4.1,0,4.6,0,4.6-1.8v-51.3
		h-49.9v57.7h-4.6v-62.2H808.1z M796.8,131v4.2h-36.6V131H796.8z M792.7,165.6h-24.3v5.4H764v-28h28.8V165.6z M788.2,147.2h-19.8
		v14.3h19.8V147.2z"/>
	<path d="M860.4,115c-0.2,0.6-0.8,0.9-1.5,1.1c6.9,9.6,19.8,19.1,30.9,23.9c-1.1,1.1-2.3,2.8-3,4.3c-11.3-5.5-24-15.2-30.8-24.8
		c-5.9,8.8-17.7,18.8-30.1,25.1c-0.6-1-1.8-2.8-2.8-3.8c12.5-6,24.7-16.6,30.3-26.1L860.4,115z M826.8,155.4v-4.5h59.4v4.5h-34.1
		l0.9,0.3c-0.2,0.5-0.8,0.7-1.7,0.8c-2.1,4.8-5.3,11.2-8.4,16.4c9.4-0.2,20.4-0.6,31.2-0.9c-3.2-3.7-6.9-7.5-10.4-10.6l4-2.2
		c6.7,5.7,13.8,13.5,17.1,18.9l-4.3,2.7c-0.9-1.5-2.1-3.2-3.5-5c-17.2,0.9-35.5,1.7-46.8,2.1c-0.1,0.6-0.6,0.9-1.1,1l-1.8-5.7
		c3,0,6.4-0.1,10.3-0.2c2.9-5.1,6.2-12,8.4-17.6H826.8z M838.9,137.2h34.4v4.5h-34.4V137.2z"/>
	<path d="M931.9,129.9c-0.1,0.3-0.5,0.6-0.8,0.7c-2.5,5.9-6.1,11.5-10.2,16.7c3.4,2.3,10.3,7.4,12.2,8.8l-2.8,4c-2-2-6.5-5.7-10-8.5
		v29h-4.7v-27.3c-3.6,3.6-7.4,6.8-11.1,9.3c-0.5-1.2-1.8-3.3-2.6-4.2c8.9-5.5,18.3-15.4,23.5-25.8h-21.6v-4.4h11.8v-13.5l6.2,0.4
		c-0.1,0.5-0.5,0.9-1.4,1v12.2h7.7l0.8-0.3L931.9,129.9z M952.1,173.8h17.1v4.7h-40.5v-4.7h18.6v-30.7h-15.7v-4.6h15.7v-23.2
		l6.3,0.4c-0.1,0.5-0.5,0.9-1.5,1v21.8h15.7v4.6h-15.7V173.8z"/>
	<path d="M1016.5,153.2h-21.3c-0.2,8.7-1.4,19.8-6.4,27.5c-0.7-0.8-2.6-2.3-3.8-2.9c5.1-7.8,5.6-18.8,5.6-27.1v-19.6h25.9V153.2z
		 M1018.7,118.7v4.4h-31.7v-4.4H1018.7z M1011.9,135.5h-16.7v13.3h16.7V135.5z M1052.7,139.3v4.6h-8.4v36.8h-4.7v-36.8h-13.2
		c-0.3,11.3-2.3,25.9-12.2,36.5c-0.6-1.1-2.3-2.6-3.5-3.3c9.9-10.6,11.1-24.9,11.1-36v-18.9l3.7,1c7.9-2.1,16.4-4.7,21.3-7.5
		l4.6,3.8c-0.3,0.3-0.8,0.4-1.4,0.3c-5.7,2.6-15,5.4-23.5,7.4v12H1052.7z"/>
	<path d="M1123.3,133.5h-48.5v5.8c0,12.2-1,29.5-8.4,41.3c-0.8-0.8-3-2.1-4.1-2.5c7.2-11.3,7.8-27.3,7.8-38.8v-21h53.3V133.5z
		 M1118.5,122.3h-43.7v7.4h43.7V122.3z M1124.4,160.3V176c0,4.4-2.3,4.5-11.4,4.5c-0.2-1.1-0.8-2.5-1.3-3.5c2,0.1,3.8,0.1,5.1,0.1
		c2.8,0,3.1,0,3.1-1.1v-12.2h-17.1v6l7.8-0.3c-0.9-1.2-1.9-2.4-3-3.5l2.9-1.1c3,2.9,5.9,7.1,6.9,10l-3,1.3c-0.4-1.1-1.1-2.3-1.8-3.6
		c-9.5,0.6-19.1,1.1-25.4,1.3c-0.1,0.6-0.4,0.8-0.9,0.9l-1.3-4.5c3.6-0.1,8.3-0.2,13.3-0.4v-6.2h-16.2v16.8h-4.5v-20.3h20.6v-4
		h-17.8v-12.3h17.8v-4c-6.1,0.4-12.4,0.8-18.3,0.9c-0.1-0.9-0.6-2.3-1.1-3.2c13.3-0.5,29.5-1.7,38-3.5l3.5,3.1
		c-0.1,0.1-0.4,0.2-0.6,0.2c-0.2,0-0.4,0-0.7-0.1c-4.3,0.9-10,1.6-16.3,2.1v4.4h18.3v12.3h-18.3v4H1124.4z M1085,153.2h13.4v-5.9
		H1085V153.2z M1116.7,147.3h-13.8v5.9h13.8V147.3z"/>
</g>
<g>
	<path d="M409,258.8c-0.1,0.6-0.8,1.1-1.5,1.4c-4.6,15.6-10.9,29.9-18.5,41.6c5.4,3.1,11.6,7,16.2,10.4l-5.3,8.3
		c-4.5-3.5-10.9-7.7-16.2-10.9c-11.6,16.1-26.4,29-45.3,38.2c-1.4-2.1-4.6-5.2-6.9-6.5c18.3-8.5,33-21.2,44.5-36.2
		c-9.3-5.2-18.5-9.5-27.8-13.1l4.8-7c9.2,3.3,18.6,7.5,28.3,12.7c6.5-10.3,11.7-21.2,15.2-33.3h-42.6c-7.7,12.8-18,25.5-29,34.5
		c-1.6-1.5-5-4.3-7.2-5.7c16.5-12.6,32-35.2,39.6-56.6l11.9,2.8c-0.5,1.4-1.8,1.8-3.4,1.6c-1.8,4.1-4.6,10.3-7,14.9h41.7l1.8-0.5
		L409,258.8z"/>
	<path d="M490.9,332.7c31.9-8.9,57.3-24.2,72.7-51.6c1.6,2.1,4.8,4.8,6.7,6.3c-17,28.9-45,45.7-82.8,55.6c-0.3,1-1,2.1-2,2.5
		l-5.3-8.8l1.5-2.4v-92.6l12.9,0.6c-0.1,1.4-1.3,2.5-3.8,2.8V332.7z"/>
	<path d="M623,247.8c13.1,4.1,28.1,10.7,37.4,17.1l-4.8,7.9c-9-6.4-23.9-13.1-36.7-17.5L623,247.8z M622.5,334.8
		c44.6-13.8,74.2-38.8,89.3-73.6c2.6,2.1,5.5,3.8,8.2,5.2c-15.7,34.4-46.3,61.2-88.9,75.4c-0.1,1.1-0.9,2.4-1.8,2.9L622.5,334.8z"/>
	<path d="M847.5,304.4c-12.8-6.9-30.4-15.1-44.1-20.5v62.8H794V237.6l12.7,0.8c-0.1,1.4-1.1,2.3-3.3,2.6v36.7l1.9-2.6
		c14.7,5.4,34.2,14.1,47.2,21L847.5,304.4z"/>
	<path d="M912.4,286.5h116.3v9.3H912.4V286.5z"/>
	<path d="M1155.3,339.2c0,2.6,1.1,3.1,7,3.1h20.6c4.8,0,5.7-1.3,6.2-12.2c1.8,1.3,5,2.4,7.3,2.9c-1,13.2-3.4,16.3-12.6,16.3h-22.1
		c-11.7,0-14.7-2-14.7-10.2v-10.6h-19.5c-4.5,12.1-14.2,18.8-42.7,22.2c-0.5-1.9-2.4-5-3.9-6.5c23.7-2.3,33.4-6.5,37.6-15.7h-18.6
		v-41.8h77.6v41.8h-22.2V339.2z M1139.6,275.5v5.7h-52.8v-42.1h51.1v5.7h-22.2v6.2h18.3V269h-18.3v6.5H1139.6z M1108.5,244.8h-14.1
		v6.2h14.1V244.8z M1126.4,263.5v-7h-31.9v7H1126.4z M1094.5,269v6.5h14.1V269H1094.5z M1107.9,292.4v6.5h61.2v-6.5H1107.9z
		 M1107.9,304.3v6.7h61.2v-6.7H1107.9z M1107.9,316.2v6.9h61.2v-6.9H1107.9z M1196.2,253.9h-42c-3,5.8-6.5,11.1-10,15.1
		c-1.5-1.4-4.4-3.3-6.2-4.3c6.5-7,12.7-19,16.2-30.8l9.5,2.8c-0.3,0.8-1.1,1.3-2.5,1.1c-1,3-2.3,6.2-3.6,9.2h38.6V253.9z
		 M1192.6,276.2h-42.3v-6.8h42.3V276.2z"/>
</g>
</svg>
